<svg width="302" height="49" viewBox="0 0 302 49" fill="none" xmlns="http://www.w3.org/2000/svg">
<path d="M14.717 48V11.648H0.381V3.2H39.421V11.648H25.085V48H14.717ZM57.8835 48.512C53.9582 48.512 50.5022 47.744 47.5155 46.208C44.5715 44.672 42.2888 42.5813 40.6675 39.936C39.0462 37.248 38.2355 34.1973 38.2355 30.784C38.2355 27.328 39.0248 24.2773 40.6035 21.632C42.2248 18.944 44.4222 16.8533 47.1955 15.36C49.9688 13.824 53.1048 13.056 56.6035 13.056C59.9742 13.056 63.0035 13.7813 65.6915 15.232C68.4222 16.64 70.5768 18.688 72.1555 21.376C73.7342 24.0213 74.5235 27.2 74.5235 30.912C74.5235 31.296 74.5022 31.744 74.4595 32.256C74.4168 32.7253 74.3742 33.1733 74.3315 33.6H46.3635V27.776H69.0835L65.2435 29.504C65.2435 27.712 64.8808 26.1547 64.1555 24.832C63.4302 23.5093 62.4275 22.4853 61.1475 21.76C59.8675 20.992 58.3742 20.608 56.6675 20.608C54.9608 20.608 53.4462 20.992 52.1235 21.76C50.8435 22.4853 49.8408 23.5307 49.1155 24.896C48.3902 26.2187 48.0275 27.7973 48.0275 29.632V31.168C48.0275 33.0453 48.4328 34.7093 49.2435 36.16C50.0968 37.568 51.2702 38.656 52.7635 39.424C54.2995 40.1493 56.0915 40.512 58.1395 40.512C59.9742 40.512 61.5742 40.2347 62.9395 39.68C64.3475 39.1253 65.6275 38.2933 66.7795 37.184L72.0915 42.944C70.5128 44.736 68.5288 46.1227 66.1395 47.104C63.7502 48.0427 60.9982 48.512 57.8835 48.512ZM97.8105 48.512C94.0985 48.512 90.7918 47.7653 87.8905 46.272C84.9892 44.736 82.7065 42.624 81.0425 39.936C79.4212 37.248 78.6105 34.1973 78.6105 30.784C78.6105 27.328 79.4212 24.2773 81.0425 21.632C82.7065 18.944 84.9892 16.8533 87.8905 15.36C90.7918 13.824 94.0985 13.056 97.8105 13.056C101.437 13.056 104.595 13.824 107.283 15.36C109.971 16.8533 111.955 19.008 113.235 21.824L105.491 25.984C104.595 24.3627 103.464 23.168 102.099 22.4C100.776 21.632 99.3252 21.248 97.7465 21.248C96.0398 21.248 94.5038 21.632 93.1385 22.4C91.7732 23.168 90.6852 24.256 89.8745 25.664C89.1065 27.072 88.7225 28.7787 88.7225 30.784C88.7225 32.7893 89.1065 34.496 89.8745 35.904C90.6852 37.312 91.7732 38.4 93.1385 39.168C94.5038 39.936 96.0398 40.32 97.7465 40.32C99.3252 40.32 100.776 39.9573 102.099 39.232C103.464 38.464 104.595 37.248 105.491 35.584L113.235 39.808C111.955 42.5813 109.971 44.736 107.283 46.272C104.595 47.7653 101.437 48.512 97.8105 48.512ZM139.724 13.056C142.454 13.056 144.886 13.6107 147.02 14.72C149.196 15.7867 150.902 17.4507 152.14 19.712C153.377 21.9307 153.996 24.7893 153.996 28.288V48H144.012V29.824C144.012 27.0507 143.393 25.0027 142.156 23.68C140.961 22.3573 139.254 21.696 137.036 21.696C135.457 21.696 134.028 22.0373 132.748 22.72C131.51 23.36 130.529 24.3627 129.804 25.728C129.121 27.0933 128.78 28.8427 128.78 30.976V48H118.796V0.511997H128.78V23.104L126.54 20.224C127.777 17.92 129.548 16.1493 131.852 14.912C134.156 13.6747 136.78 13.056 139.724 13.056ZM178.47 48.768C174.886 48.768 171.451 48.2987 168.166 47.36C164.88 46.3787 162.235 45.12 160.23 43.584L163.75 35.776C165.67 37.1413 167.931 38.272 170.534 39.168C173.179 40.0213 175.846 40.448 178.534 40.448C180.582 40.448 182.224 40.256 183.462 39.872C184.742 39.4453 185.68 38.8693 186.278 38.144C186.875 37.4187 187.174 36.5867 187.174 35.648C187.174 34.4533 186.704 33.5147 185.766 32.832C184.827 32.1067 183.59 31.5307 182.054 31.104C180.518 30.6347 178.811 30.208 176.934 29.824C175.099 29.3973 173.243 28.8853 171.366 28.288C169.531 27.6907 167.846 26.9227 166.31 25.984C164.774 25.0453 163.515 23.808 162.534 22.272C161.595 20.736 161.126 18.7733 161.126 16.384C161.126 13.824 161.808 11.4987 163.174 9.408C164.582 7.27466 166.672 5.58933 169.446 4.352C172.262 3.072 175.782 2.432 180.006 2.432C182.822 2.432 185.595 2.77333 188.326 3.456C191.056 4.096 193.467 5.07733 195.558 6.4L192.358 14.272C190.267 13.0773 188.176 12.2027 186.086 11.648C183.995 11.0507 181.947 10.752 179.942 10.752C177.936 10.752 176.294 10.9867 175.014 11.456C173.734 11.9253 172.816 12.544 172.262 13.312C171.707 14.0373 171.43 14.8907 171.43 15.872C171.43 17.024 171.899 17.9627 172.838 18.688C173.776 19.3707 175.014 19.9253 176.55 20.352C178.086 20.7787 179.771 21.2053 181.606 21.632C183.483 22.0587 185.339 22.5493 187.174 23.104C189.051 23.6587 190.758 24.4053 192.294 25.344C193.83 26.2827 195.067 27.52 196.006 29.056C196.987 30.592 197.478 32.5333 197.478 34.88C197.478 37.3973 196.774 39.7013 195.366 41.792C193.958 43.8827 191.846 45.568 189.03 46.848C186.256 48.128 182.736 48.768 178.47 48.768ZM224.978 48V41.28L224.338 39.808V27.776C224.338 25.6427 223.677 23.9787 222.354 22.784C221.074 21.5893 219.09 20.992 216.402 20.992C214.567 20.992 212.754 21.2907 210.962 21.888C209.213 22.4427 207.719 23.2107 206.482 24.192L202.898 17.216C204.775 15.8933 207.037 14.8693 209.682 14.144C212.327 13.4187 215.015 13.056 217.746 13.056C222.994 13.056 227.069 14.2933 229.97 16.768C232.871 19.2427 234.322 23.104 234.322 28.352V48H224.978ZM214.482 48.512C211.794 48.512 209.49 48.064 207.57 47.168C205.65 46.2293 204.178 44.9707 203.154 43.392C202.13 41.8133 201.618 40.0427 201.618 38.08C201.618 36.032 202.109 34.24 203.09 32.704C204.114 31.168 205.714 29.9733 207.89 29.12C210.066 28.224 212.903 27.776 216.402 27.776H225.554V33.6H217.49C215.143 33.6 213.522 33.984 212.626 34.752C211.773 35.52 211.346 36.48 211.346 37.632C211.346 38.912 211.837 39.936 212.818 40.704C213.842 41.4293 215.229 41.792 216.978 41.792C218.642 41.792 220.135 41.408 221.458 40.64C222.781 39.8293 223.741 38.656 224.338 37.12L225.874 41.728C225.149 43.9467 223.826 45.632 221.906 46.784C219.986 47.936 217.511 48.512 214.482 48.512ZM287.454 13.056C290.185 13.056 292.595 13.6107 294.686 14.72C296.819 15.7867 298.483 17.4507 299.678 19.712C300.915 21.9307 301.534 24.7893 301.534 28.288V48H291.55V29.824C291.55 27.0507 290.974 25.0027 289.822 23.68C288.67 22.3573 287.049 21.696 284.958 21.696C283.507 21.696 282.206 22.0373 281.054 22.72C279.902 23.36 279.006 24.3413 278.366 25.664C277.726 26.9867 277.406 28.672 277.406 30.72V48H267.422V29.824C267.422 27.0507 266.846 25.0027 265.694 23.68C264.585 22.3573 262.985 21.696 260.894 21.696C259.443 21.696 258.142 22.0373 256.99 22.72C255.838 23.36 254.942 24.3413 254.302 25.664C253.662 26.9867 253.342 28.672 253.342 30.72V48H243.358V13.568H252.894V22.976L251.102 20.224C252.297 17.8773 253.982 16.1067 256.158 14.912C258.377 13.6747 260.894 13.056 263.71 13.056C266.867 13.056 269.619 13.8667 271.966 15.488C274.355 17.0667 275.934 19.4987 276.702 22.784L273.182 21.824C274.334 19.136 276.169 17.0027 278.686 15.424C281.246 13.8453 284.169 13.056 287.454 13.056Z" fill="#13E6E6"/>
</svg>
