<svg width="23" height="28" viewBox="0 0 23 28" fill="none" xmlns="http://www.w3.org/2000/svg">
<path d="M11.5 6.78427C10.6471 6.78427 9.81329 7.023 9.1041 7.47028C8.39492 7.91756 7.84217 8.5533 7.51577 9.29709C7.18937 10.0409 7.10396 10.8593 7.27036 11.649C7.43676 12.4386 7.84749 13.1639 8.4506 13.7332C9.05372 14.3024 9.82213 14.6901 10.6587 14.8472C11.4952 15.0042 12.3623 14.9236 13.1503 14.6155C13.9383 14.3074 14.6118 13.7857 15.0857 13.1163C15.5596 12.4469 15.8125 11.6599 15.8125 10.8548C15.8125 9.77525 15.3581 8.73989 14.5494 7.97651C13.7406 7.21313 12.6437 6.78427 11.5 6.78427ZM11.5 12.2117C11.2157 12.2117 10.9378 12.1321 10.7014 11.983C10.465 11.8339 10.2807 11.622 10.1719 11.3741C10.0631 11.1261 10.0347 10.8533 10.0901 10.5901C10.1456 10.3269 10.2825 10.0851 10.4835 9.89539C10.6846 9.70563 10.9407 9.5764 11.2196 9.52405C11.4984 9.47169 11.7874 9.49856 12.0501 9.60126C12.3128 9.70396 12.5373 9.87787 12.6952 10.101C12.8532 10.3241 12.9375 10.5865 12.9375 10.8548C12.9375 11.2147 12.786 11.5598 12.5165 11.8143C12.2469 12.0687 11.8812 12.2117 11.5 12.2117ZM11.5 0C8.45001 0 5.52494 1.14363 3.36827 3.17931C1.2116 5.21498 0 7.97595 0 10.8548C0 18.996 7.71938 25.1154 10.5081 27.6255C10.7755 27.8661 11.1306 28.0003 11.5 28.0003C11.8694 28.0003 12.2245 27.8661 12.4919 27.6255C15.2806 25.1154 23 18.996 23 10.8548C23 7.97595 21.7884 5.21498 19.6317 3.17931C17.4751 1.14363 14.55 0 11.5 0ZM11.5 24.7761C8.625 22.171 2.875 17.0149 2.875 10.8548C2.875 8.69567 3.7837 6.62494 5.4012 5.09819C7.01871 3.57143 9.21251 2.71371 11.5 2.71371C13.7875 2.71371 15.9813 3.57143 17.5988 5.09819C19.2163 6.62494 20.125 8.69567 20.125 10.8548C20.125 17.0149 14.4469 22.171 11.5 24.7761Z" fill="#13E6E6"/>
</svg>
