<svg width="237" height="39" viewBox="0 0 237 39" fill="none" xmlns="http://www.w3.org/2000/svg">
<path d="M11.9664 38V9.6H0.766406V3H31.2664V9.6H20.0664V38H11.9664ZM45.6902 38.4C42.6236 38.4 39.9236 37.8 37.5902 36.6C35.2902 35.4 33.5069 33.7667 32.2402 31.7C30.9736 29.6 30.3402 27.2167 30.3402 24.55C30.3402 21.85 30.9569 19.4667 32.1902 17.4C33.4569 15.3 35.1736 13.6667 37.3402 12.5C39.5069 11.3 41.9569 10.7 44.6902 10.7C47.3236 10.7 49.6902 11.2667 51.7902 12.4C53.9236 13.5 55.6069 15.1 56.8402 17.2C58.0736 19.2667 58.6902 21.75 58.6902 24.65C58.6902 24.95 58.6736 25.3 58.6402 25.7C58.6069 26.0667 58.5736 26.4167 58.5402 26.75H36.6902V22.2H54.4402L51.4402 23.55C51.4402 22.15 51.1569 20.9333 50.5902 19.9C50.0236 18.8667 49.2402 18.0667 48.2402 17.5C47.2402 16.9 46.0736 16.6 44.7402 16.6C43.4069 16.6 42.2236 16.9 41.1902 17.5C40.1902 18.0667 39.4069 18.8833 38.8402 19.95C38.2736 20.9833 37.9902 22.2167 37.9902 23.65V24.85C37.9902 26.3167 38.3069 27.6167 38.9402 28.75C39.6069 29.85 40.5236 30.7 41.6902 31.3C42.8902 31.8667 44.2902 32.15 45.8902 32.15C47.3236 32.15 48.5736 31.9333 49.6402 31.5C50.7402 31.0667 51.7402 30.4167 52.6402 29.55L56.7902 34.05C55.5569 35.45 54.0069 36.5333 52.1402 37.3C50.2736 38.0333 48.1236 38.4 45.6902 38.4ZM76.8832 38.4C73.9832 38.4 71.3999 37.8167 69.1332 36.65C66.8665 35.45 65.0832 33.8 63.7832 31.7C62.5165 29.6 61.8832 27.2167 61.8832 24.55C61.8832 21.85 62.5165 19.4667 63.7832 17.4C65.0832 15.3 66.8665 13.6667 69.1332 12.5C71.3999 11.3 73.9832 10.7 76.8832 10.7C79.7165 10.7 82.1832 11.3 84.2832 12.5C86.3832 13.6667 87.9332 15.35 88.9332 17.55L82.8832 20.8C82.1832 19.5333 81.2999 18.6 80.2332 18C79.1999 17.4 78.0665 17.1 76.8332 17.1C75.4999 17.1 74.2999 17.4 73.2332 18C72.1665 18.6 71.3165 19.45 70.6832 20.55C70.0832 21.65 69.7832 22.9833 69.7832 24.55C69.7832 26.1167 70.0832 27.45 70.6832 28.55C71.3165 29.65 72.1665 30.5 73.2332 31.1C74.2999 31.7 75.4999 32 76.8332 32C78.0665 32 79.1999 31.7167 80.2332 31.15C81.2999 30.55 82.1832 29.6 82.8832 28.3L88.9332 31.6C87.9332 33.7667 86.3832 35.45 84.2832 36.65C82.1832 37.8167 79.7165 38.4 76.8832 38.4ZM109.628 10.7C111.761 10.7 113.661 11.1333 115.328 12C117.028 12.8333 118.361 14.1333 119.328 15.9C120.294 17.6333 120.778 19.8667 120.778 22.6V38H112.978V23.8C112.978 21.6333 112.494 20.0333 111.528 19C110.594 17.9667 109.261 17.45 107.528 17.45C106.294 17.45 105.178 17.7167 104.178 18.25C103.211 18.75 102.444 19.5333 101.878 20.6C101.344 21.6667 101.078 23.0333 101.078 24.7V38H93.2777V0.899998H101.078V18.55L99.3277 16.3C100.294 14.5 101.678 13.1167 103.478 12.15C105.278 11.1833 107.328 10.7 109.628 10.7ZM139.898 38.6C137.098 38.6 134.415 38.2333 131.848 37.5C129.281 36.7333 127.215 35.75 125.648 34.55L128.398 28.45C129.898 29.5167 131.665 30.4 133.698 31.1C135.765 31.7667 137.848 32.1 139.948 32.1C141.548 32.1 142.831 31.95 143.798 31.65C144.798 31.3167 145.531 30.8667 145.998 30.3C146.465 29.7333 146.698 29.0833 146.698 28.35C146.698 27.4167 146.331 26.6833 145.598 26.15C144.865 25.5833 143.898 25.1333 142.698 24.8C141.498 24.4333 140.165 24.1 138.698 23.8C137.265 23.4667 135.815 23.0667 134.348 22.6C132.915 22.1333 131.598 21.5333 130.398 20.8C129.198 20.0667 128.215 19.1 127.448 17.9C126.715 16.7 126.348 15.1667 126.348 13.3C126.348 11.3 126.881 9.48333 127.948 7.85C129.048 6.18333 130.681 4.86666 132.848 3.9C135.048 2.9 137.798 2.4 141.098 2.4C143.298 2.4 145.465 2.66667 147.598 3.2C149.731 3.7 151.615 4.46666 153.248 5.5L150.748 11.65C149.115 10.7167 147.481 10.0333 145.848 9.6C144.215 9.13333 142.615 8.9 141.048 8.9C139.481 8.9 138.198 9.08333 137.198 9.45C136.198 9.81667 135.481 10.3 135.048 10.9C134.615 11.4667 134.398 12.1333 134.398 12.9C134.398 13.8 134.765 14.5333 135.498 15.1C136.231 15.6333 137.198 16.0667 138.398 16.4C139.598 16.7333 140.915 17.0667 142.348 17.4C143.815 17.7333 145.265 18.1167 146.698 18.55C148.165 18.9833 149.498 19.5667 150.698 20.3C151.898 21.0333 152.865 22 153.598 23.2C154.365 24.4 154.748 25.9167 154.748 27.75C154.748 29.7167 154.198 31.5167 153.098 33.15C151.998 34.7833 150.348 36.1 148.148 37.1C145.981 38.1 143.231 38.6 139.898 38.6ZM176.233 38V32.75L175.733 31.6V22.2C175.733 20.5333 175.216 19.2333 174.183 18.3C173.183 17.3667 171.633 16.9 169.533 16.9C168.099 16.9 166.683 17.1333 165.283 17.6C163.916 18.0333 162.749 18.6333 161.783 19.4L158.983 13.95C160.449 12.9167 162.216 12.1167 164.283 11.55C166.349 10.9833 168.449 10.7 170.583 10.7C174.683 10.7 177.866 11.6667 180.133 13.6C182.399 15.5333 183.533 18.55 183.533 22.65V38H176.233ZM168.033 38.4C165.933 38.4 164.133 38.05 162.633 37.35C161.133 36.6167 159.983 35.6333 159.183 34.4C158.383 33.1667 157.983 31.7833 157.983 30.25C157.983 28.65 158.366 27.25 159.133 26.05C159.933 24.85 161.183 23.9167 162.883 23.25C164.583 22.55 166.799 22.2 169.533 22.2H176.683V26.75H170.383C168.549 26.75 167.283 27.05 166.583 27.65C165.916 28.25 165.583 29 165.583 29.9C165.583 30.9 165.966 31.7 166.733 32.3C167.533 32.8667 168.616 33.15 169.983 33.15C171.283 33.15 172.449 32.85 173.483 32.25C174.516 31.6167 175.266 30.7 175.733 29.5L176.933 33.1C176.366 34.8333 175.333 36.15 173.833 37.05C172.333 37.95 170.399 38.4 168.033 38.4ZM225.042 10.7C227.176 10.7 229.059 11.1333 230.692 12C232.359 12.8333 233.659 14.1333 234.592 15.9C235.559 17.6333 236.042 19.8667 236.042 22.6V38H228.242V23.8C228.242 21.6333 227.792 20.0333 226.892 19C225.992 17.9667 224.726 17.45 223.092 17.45C221.959 17.45 220.942 17.7167 220.042 18.25C219.142 18.75 218.442 19.5167 217.942 20.55C217.442 21.5833 217.192 22.9 217.192 24.5V38H209.392V23.8C209.392 21.6333 208.942 20.0333 208.042 19C207.176 17.9667 205.926 17.45 204.292 17.45C203.159 17.45 202.142 17.7167 201.242 18.25C200.342 18.75 199.642 19.5167 199.142 20.55C198.642 21.5833 198.392 22.9 198.392 24.5V38H190.592V11.1H198.042V18.45L196.642 16.3C197.576 14.4667 198.892 13.0833 200.592 12.15C202.326 11.1833 204.292 10.7 206.492 10.7C208.959 10.7 211.109 11.3333 212.942 12.6C214.809 13.8333 216.042 15.7333 216.642 18.3L213.892 17.55C214.792 15.45 216.226 13.7833 218.192 12.55C220.192 11.3167 222.476 10.7 225.042 10.7Z" fill="#13E6E6"/>
</svg>
