<svg width="35" height="35" viewBox="0 0 35 35" fill="none" xmlns="http://www.w3.org/2000/svg">
<path d="M17.555 4.79834C10.3507 4.79834 4.48762 10.4455 4.48508 17.3856C4.48339 19.605 5.08629 21.7711 6.22944 23.6789L4.375 30.2016L11.3042 28.4513C13.2316 29.4595 15.3747 29.9854 17.55 29.9839H17.555C24.7594 29.9839 30.6225 24.336 30.625 17.3958C30.6267 14.0341 29.2685 10.8697 26.8001 8.49112C24.3326 6.11169 21.0514 4.79919 17.555 4.79834ZM17.555 27.8577H17.5508C15.6015 27.8577 13.6895 27.353 12.0214 26.3995L11.6234 26.1726L7.51315 27.2108L8.61056 23.3495L8.3523 22.954C7.2675 21.2996 6.69002 19.364 6.69093 17.3856C6.69347 11.6166 11.5675 6.92459 17.5593 6.92459C20.4603 6.92544 23.1878 8.01523 25.2395 9.99245C27.2912 11.9697 28.42 14.5989 28.4183 17.395C28.4158 23.164 23.5426 27.8577 17.5542 27.8577H17.555ZM23.5138 20.0208C23.1869 19.8641 21.5815 19.1029 21.2817 18.997C20.9828 18.8929 20.7652 18.8387 20.5475 19.1537C20.3308 19.4687 19.7042 20.1775 19.5145 20.3866C19.3231 20.5966 19.1326 20.622 18.8057 20.4654C18.4789 20.3079 17.4263 19.9759 16.1799 18.9039C15.2086 18.0707 14.5532 17.041 14.3627 16.7252C14.1722 16.411 14.3424 16.2408 14.5058 16.0841C14.6523 15.9444 14.8327 15.7175 14.9952 15.5337C15.1578 15.35 15.212 15.2187 15.3221 15.0087C15.4305 14.7996 15.3763 14.615 15.2942 14.4583C15.212 14.3 14.56 12.7521 14.2865 12.1229C14.0223 11.5099 13.753 11.592 13.5523 11.5818C13.3618 11.5734 13.145 11.5708 12.9257 11.5708C12.7098 11.5708 12.355 11.6496 12.0552 11.9646C11.7563 12.2796 10.9121 13.04 10.9121 14.5879C10.9121 16.1366 12.0823 17.6321 12.2458 17.8421C12.4092 18.0512 14.549 21.2291 17.8252 22.5925C18.6042 22.9151 19.2122 23.109 19.6872 23.2546C20.4696 23.4943 21.1818 23.4596 21.744 23.3791C22.3706 23.2885 23.6764 22.6187 23.9473 21.8846C24.22 21.1504 24.22 20.5204 24.1387 20.3891C24.0591 20.2579 23.8406 20.1791 23.5138 20.0208Z" fill="#297274"/>
</svg>
